<svg xmlns="http://www.w3.org/2000/svg" viewBox="0 0 900 560">
<rect width="900" height="560" rx="30" fill="#111"/>
<rect x="35" y="35" width="830" height="490" rx="22" fill="#efefef"/>
<circle cx="480" cy="280" r="185" fill="none" stroke="#111" stroke-width="8"/>
<rect x="0" y="0" width="900" height="560" fill="rgba(255,255,255,0.06)"/>
<path d="M510 160c55 0 94 42 94 105 0 42-17 77-48 97l44 122H450l31-100c-41-18-68-61-68-116 0-65 40-108 97-108z" fill="#050505"/>
<circle cx="506" cy="142" r="46" fill="#050505"/>
<path d="M384 285c-62 24-116 80-141 151h160l62-61-21-59z" fill="#050505"/>
</svg>